<svg width="79" height="79" viewBox="0 0 79 79" fill="none" xmlns="http://www.w3.org/2000/svg">
<rect width="79" height="79" rx="39.5" fill="white"/>
<g clip-path="url(#clip0_1_177)">
<path d="M32.5253 37.0864H58.2662C58.625 37.0863 58.9803 37.1571 59.3116 37.2948C59.643 37.4324 59.9438 37.6343 60.1969 37.8886V37.8933C60.4508 38.1457 60.6524 38.4457 60.7902 38.7762C60.9279 39.1067 60.999 39.4612 60.9994 39.8192V57.2664C60.9994 58.0164 60.6912 58.7021 60.1969 59.1964C59.9439 59.4509 59.6431 59.6529 59.3117 59.7906C58.9804 59.9283 58.6251 59.9991 58.2662 59.9989H32.5253C32.1666 59.9987 31.8114 59.9277 31.4802 59.79C31.1489 59.6523 30.8481 59.4506 30.595 59.1964C30.3406 58.9435 30.1387 58.6428 30.0009 58.3116C29.8632 57.9804 29.7924 57.6252 29.7925 57.2664V39.8192C29.7925 39.0689 30.1003 38.3833 30.595 37.8886C30.8482 37.6346 31.1491 37.433 31.4803 37.2954C31.8115 37.1578 32.1666 37.0867 32.5253 37.0864ZM58.2662 38.3358H32.5253C32.3308 38.3363 32.1383 38.3752 31.9589 38.4504C31.7795 38.5255 31.6168 38.6354 31.48 38.7736C31.3416 38.9104 31.2317 39.0732 31.1565 39.2527C31.0813 39.4321 31.0424 39.6247 31.0419 39.8192V57.2664C31.0419 57.6742 31.2109 58.0471 31.48 58.3161C31.617 58.4537 31.7799 58.5629 31.9593 58.6373C32.1387 58.7116 32.3311 58.7498 32.5253 58.7495H58.2662C58.4611 58.7498 58.6541 58.7117 58.8342 58.6373C59.0143 58.5629 59.178 58.4538 59.3159 58.3161C59.4537 58.1782 59.5629 58.0146 59.6374 57.8344C59.7118 57.6543 59.7501 57.4613 59.75 57.2664V39.8192C59.7502 39.6243 59.712 39.4313 59.6375 39.2512C59.563 39.071 59.4537 38.9074 59.3159 38.7696V38.7739C59.0379 38.4945 58.6604 38.3369 58.2662 38.3358Z" fill="#1FA8AD"/>
<path d="M40.1776 31.8767H50.6189C51.2132 31.8767 51.7595 32.1195 52.1501 32.5142C52.5404 32.9089 52.7879 33.4514 52.7879 34.0455V38.3355H48.9014V35.6811H41.8954V38.3358H38.0085V34.0455C38.0085 33.7606 38.0647 33.4786 38.1737 33.2154C38.2827 32.9523 38.4424 32.7132 38.6439 32.5118C38.8453 32.3104 39.0844 32.1507 39.3476 32.0417C39.6107 31.9327 39.8928 31.8767 40.1776 31.8767ZM50.6185 33.1261H40.1776C39.9257 33.1261 39.696 33.2298 39.5267 33.3992C39.3552 33.5706 39.2586 33.803 39.2582 34.0455V37.0861H40.646V34.4317H50.1507V37.0864H51.5385V34.0458C51.5385 33.7939 51.4345 33.5642 51.2698 33.3995H51.2651C51.1811 33.313 51.0806 33.2442 50.9696 33.1972C50.8585 33.1502 50.7391 33.1261 50.6185 33.1261Z" fill="#1FA8AD"/>
<path d="M27.9013 53.9047C28.2441 53.9047 28.5259 54.1819 28.5259 54.5291C28.5251 54.6945 28.459 54.8528 28.342 54.9698C28.2251 55.0867 28.0666 55.1527 27.9013 55.1534H22.8741C22.3622 55.1534 21.8938 54.9409 21.5509 54.6028V54.5984C21.3766 54.425 21.2381 54.2188 21.1436 53.9918C21.049 53.7647 21.0002 53.5213 21 53.2753V21.8738C21 21.3619 21.2125 20.8934 21.5509 20.5509C21.7244 20.3765 21.9305 20.2381 22.1576 20.1435C22.3846 20.049 22.6281 20.0002 22.8741 20H40.4463C40.7153 20 40.9669 20.0522 41.2016 20.1563C41.4369 20.2648 41.6491 20.418 41.8263 20.6072L46.5416 25.6522C46.5544 25.6653 46.5631 25.6781 46.5763 25.6913C46.7204 25.8536 46.8349 26.0401 46.9144 26.2422C46.9947 26.4588 47.0358 26.688 47.0359 26.9191V29.9816C47.0359 30.1472 46.97 30.3061 46.8529 30.4232C46.7357 30.5403 46.5769 30.6062 46.4113 30.6063C46.3289 30.6067 46.2473 30.5908 46.171 30.5596C46.0948 30.5284 46.0255 30.4825 45.9671 30.4245C45.9086 30.3664 45.8622 30.2974 45.8305 30.2214C45.7988 30.1454 45.7824 30.0639 45.7822 29.9816V26.9191C45.7822 26.8322 45.7738 26.7544 45.7475 26.6847C45.7216 26.6279 45.6896 26.574 45.6522 26.5241C45.6434 26.5156 45.6344 26.5113 45.6259 26.5025L40.915 21.4575C40.8528 21.3915 40.7794 21.3371 40.6981 21.2969C40.6183 21.2645 40.5327 21.2484 40.4466 21.2494H22.8741C22.7922 21.2493 22.7112 21.2658 22.6359 21.2978C22.5606 21.3299 22.4926 21.3769 22.4359 21.4359L22.4316 21.4316C22.3188 21.5441 22.2494 21.7047 22.2494 21.8738V53.2753C22.2494 53.4488 22.3188 53.605 22.4316 53.7178L22.4359 53.7222C22.5488 53.8309 22.7047 53.9047 22.8741 53.9047H27.9013Z" fill="#1FA8AD"/>
<path d="M43.1316 48.4736L32.4128 46.4386C31.6885 46.3043 31.02 45.9877 30.5391 45.5061C30.0788 45.0465 29.7925 44.4436 29.7925 43.719H31.0419C31.0419 44.0877 31.1897 44.3915 31.4238 44.6258C31.7232 44.9205 32.1613 45.1246 32.6428 45.2155L43.3616 47.2499L43.1316 48.4736ZM60.9991 43.719C60.9991 44.4433 60.7128 45.0421 60.2528 45.5018V45.5061C59.7713 45.9877 59.1035 46.3046 58.3835 46.4386L47.6644 48.4905L47.4303 47.2674L58.1491 45.2155C58.635 45.1202 59.0732 44.9208 59.3722 44.6258C59.4931 44.508 59.5889 44.3669 59.6538 44.211C59.7187 44.0552 59.7513 43.8878 59.7497 43.719H60.9991ZM36.9197 25.5824C37.2666 25.5824 37.5444 25.8602 37.5444 26.2071C37.5443 26.3727 37.4785 26.5316 37.3613 26.6487C37.2442 26.7658 37.0854 26.8317 36.9197 26.8318H28.201C28.1173 26.8344 28.0339 26.8202 27.9558 26.79C27.8777 26.7598 27.8064 26.7142 27.7463 26.656C27.6862 26.5977 27.6383 26.5279 27.6057 26.4508C27.573 26.3737 27.5562 26.2908 27.5562 26.2071C27.5562 26.1233 27.573 26.0405 27.6057 25.9633C27.6383 25.8862 27.6862 25.8165 27.7463 25.7582C27.8064 25.6999 27.8777 25.6543 27.9558 25.6241C28.0339 25.5939 28.1173 25.5797 28.201 25.5824H36.9197ZM25.2247 25.5824C25.5719 25.5824 25.8541 25.8602 25.8541 26.2071C25.8531 26.3733 25.7863 26.5323 25.6684 26.6494C25.5504 26.7664 25.3909 26.832 25.2247 26.8318H24.7566C24.4135 26.8318 24.1316 26.5499 24.1316 26.2071C24.1317 26.0414 24.1976 25.8825 24.3148 25.7653C24.432 25.6482 24.5909 25.5824 24.7566 25.5824H25.2247ZM32.8116 31.2521C33.1544 31.2521 33.4363 31.5336 33.4363 31.8768C33.4363 32.2236 33.1544 32.5011 32.8116 32.5011H28.2007C28.0392 32.4949 27.8865 32.4264 27.7744 32.3099C27.6624 32.1935 27.5999 32.0382 27.5999 31.8766C27.5999 31.715 27.6624 31.5597 27.7744 31.4433C27.8865 31.3269 28.0392 31.2583 28.2007 31.2521H32.8116ZM25.225 31.2521C25.5719 31.2521 25.8541 31.5336 25.8541 31.8768C25.8541 32.2236 25.5722 32.5011 25.225 32.5011H24.7566C24.5909 32.5011 24.4321 32.4354 24.3149 32.3183C24.1977 32.2012 24.1318 32.0424 24.1316 31.8768C24.1316 31.534 24.4135 31.2521 24.7566 31.2521H25.225ZM36.9197 28.4193C37.2666 28.4193 37.5444 28.6971 37.5444 29.044C37.5443 29.2096 37.4785 29.3685 37.3613 29.4856C37.2442 29.6027 37.0854 29.6686 36.9197 29.6686H28.201C28.1173 29.6713 28.0339 29.6571 27.9558 29.6269C27.8777 29.5967 27.8064 29.5511 27.7463 29.4928C27.6862 29.4346 27.6383 29.3648 27.6057 29.2877C27.573 29.2106 27.5562 29.1277 27.5562 29.044C27.5562 28.9602 27.573 28.8773 27.6057 28.8002C27.6383 28.7231 27.6862 28.6533 27.7463 28.5951C27.8064 28.5368 27.8777 28.4912 27.9558 28.461C28.0339 28.4308 28.1173 28.4166 28.201 28.4193H36.9197ZM25.2247 28.4193C25.5719 28.4193 25.8541 28.6971 25.8541 29.044C25.853 29.2101 25.7862 29.3691 25.6683 29.4861C25.5504 29.6032 25.3909 29.6688 25.2247 29.6686H24.7566C24.4135 29.6686 24.1316 29.3868 24.1316 29.044C24.1317 28.8782 24.1976 28.7194 24.3148 28.6022C24.432 28.4851 24.5909 28.4193 24.7566 28.4193H25.2247ZM41.0885 20.2296L46.775 26.4024C46.8866 26.5243 46.9451 26.6856 46.9378 26.8506C46.9305 27.0157 46.8579 27.1711 46.736 27.2827C46.6215 27.3887 46.4713 27.4476 46.3153 27.4477H42.3985C42.0808 27.4476 41.7663 27.3847 41.473 27.2626C41.1797 27.1406 40.9134 26.9617 40.6894 26.7365L40.6503 26.6974C40.2185 26.2486 39.9775 25.6499 39.9778 25.0271V20.6246C39.9779 20.4589 40.0438 20.3 40.161 20.1828C40.2782 20.0657 40.4371 19.9999 40.6028 19.9999C40.7975 19.9999 40.9713 20.0908 41.0885 20.2296ZM44.8928 26.1986L41.2272 22.2249V25.0274C41.2267 25.3254 41.3401 25.6124 41.5441 25.8296L41.5703 25.8558C41.6791 25.9645 41.8082 26.0507 41.9503 26.1095C42.0924 26.1683 42.2447 26.1985 42.3985 26.1983L44.8928 26.1986ZM49.4041 23.3658C49.3879 23.4462 49.3559 23.5225 49.3099 23.5903C49.264 23.6581 49.2049 23.7162 49.1363 23.761C49.0677 23.8058 48.9909 23.8365 48.9103 23.8514C48.8297 23.8662 48.747 23.8648 48.6669 23.8474C48.5868 23.8312 48.5107 23.7993 48.443 23.7537C48.3752 23.708 48.3171 23.6495 48.2719 23.5814C48.2268 23.5133 48.1956 23.4369 48.1799 23.3567C48.1643 23.2765 48.1647 23.194 48.181 23.114L48.4197 21.9774L48.7319 20.4983C48.761 20.3575 48.8377 20.2311 48.949 20.1402C49.0604 20.0493 49.1997 19.9995 49.3435 19.9993H51.5297C51.8463 19.9993 52.1069 20.2336 52.15 20.5415L52.6097 22.7277C52.9307 22.819 53.2432 22.9274 53.5466 23.053C53.8547 23.179 54.1538 23.3265 54.44 23.4871L56.3532 22.2377C56.4725 22.1608 56.6146 22.127 56.7558 22.142C56.8971 22.157 57.0289 22.2199 57.1294 22.3202H57.1341L57.9063 23.0924C57.9147 23.1055 57.9278 23.1143 57.9369 23.1271L58.6785 23.869C58.895 24.0815 58.9172 24.4199 58.7482 24.6627L57.5116 26.558C57.6757 26.8467 57.8221 27.1452 57.9497 27.4518C58.0713 27.7552 58.1797 28.0677 58.2707 28.3886L60.5003 28.8615C60.647 28.8901 60.7784 28.9709 60.8701 29.0889C60.9618 29.2069 61.0078 29.3541 60.9994 29.5033V31.6555C60.9994 31.9721 60.7653 32.2368 60.4572 32.2758L58.271 32.7355C58.1817 33.0536 58.0745 33.3664 57.95 33.6724C57.7712 34.1041 57.5549 34.5193 57.3038 34.9133C57.2604 34.9833 57.2035 35.044 57.1364 35.0918C57.0693 35.1396 56.9934 35.1735 56.9131 35.1917C56.8327 35.2098 56.7496 35.2118 56.6685 35.1975C56.5874 35.1832 56.5099 35.1529 56.4407 35.1083C56.3009 35.0191 56.2023 34.878 56.1665 34.7161C56.1307 34.5542 56.1606 34.3847 56.2497 34.2449C56.6685 33.5869 56.9722 32.8624 57.1478 32.1024C57.1685 31.9788 57.2259 31.8642 57.3126 31.7737C57.3992 31.6832 57.5112 31.6209 57.6338 31.5949L59.75 31.1524V30.5624H59.7544V29.9768L57.6332 29.5299C57.5161 29.5054 57.4084 29.4479 57.3231 29.3641C57.2377 29.2803 57.1782 29.1737 57.1516 29.0571C57.0674 28.6713 56.9483 28.2939 56.796 27.9296C56.6443 27.5646 56.4613 27.2134 56.2491 26.8799C56.1861 26.7789 56.153 26.6621 56.1538 26.543C56.1546 26.424 56.1891 26.3076 56.2535 26.2074L57.4382 24.3943L57.056 24.0083C57.0432 23.9999 57.0347 23.9908 57.0213 23.9777L56.605 23.5615L54.8307 24.7196C54.7296 24.7971 54.6072 24.8416 54.48 24.847C54.3528 24.8524 54.227 24.8185 54.1197 24.7499C53.7861 24.538 53.4349 24.3551 53.07 24.2033C52.7145 24.0563 52.3474 23.9388 51.9725 23.8521C51.8491 23.832 51.7348 23.7747 51.6449 23.6878C51.555 23.601 51.4938 23.4888 51.4694 23.3661L51.0219 21.249H49.8463L49.6425 22.2293L49.4041 23.3658ZM50.4366 26.693C50.0894 26.693 49.8116 26.4152 49.8116 26.0683C49.8116 25.7215 50.0894 25.4436 50.4366 25.4436C51.8503 25.4436 53.13 26.0165 54.0585 26.9446C54.5339 27.4193 54.9108 27.9833 55.1677 28.6042C55.4245 29.225 55.5561 29.8905 55.555 30.5624C55.5559 30.9299 55.5166 31.2965 55.4378 31.6555C55.3594 32.0138 55.2433 32.3627 55.0913 32.6965C55.0221 32.8471 54.896 32.9641 54.7406 33.0219C54.5852 33.0796 54.4133 33.0734 54.2625 33.0046C54.1884 32.9704 54.1218 32.922 54.0664 32.8621C54.0111 32.8021 53.9681 32.7319 53.9399 32.6553C53.9117 32.5787 53.8989 32.4974 53.9022 32.4158C53.9055 32.3343 53.9248 32.2542 53.9591 32.1802C54.0716 31.9374 54.1585 31.6727 54.2191 31.3949C54.2757 31.1261 54.306 30.8483 54.306 30.5621C54.306 29.4949 53.8722 28.5274 53.1738 27.8249C52.4472 27.1001 51.4628 26.6931 50.4366 26.693Z" fill="#1FA8AD"/>
<path d="M43.3355 43.7368H47.4605C47.7862 43.7368 48.0809 43.8712 48.2937 44.0834L48.298 44.0878C48.5198 44.3101 48.6445 44.6112 48.6449 44.9253V49.4974C48.6449 50.3909 48.2809 51.2021 47.6905 51.7918C47.1052 52.3821 46.2896 52.7465 45.3959 52.7465C44.5021 52.7465 43.6909 52.3821 43.1012 51.7918C42.5152 51.2021 42.1465 50.3912 42.1465 49.4974V44.9253C42.1465 44.5999 42.2812 44.3003 42.498 44.0878V44.0834C42.721 43.8625 43.0217 43.7381 43.3355 43.7368ZM47.3959 44.9862H43.4005V49.4974C43.4001 49.7595 43.4516 50.0191 43.5521 50.2611C43.6526 50.5031 43.8002 50.7228 43.9862 50.9074C44.1707 51.0937 44.3903 51.2417 44.6322 51.3429C44.8741 51.4441 45.1336 51.4965 45.3959 51.4971C45.6588 51.497 45.9191 51.4448 46.1618 51.3436C46.4045 51.2424 46.6248 51.0942 46.8099 50.9074C47.1841 50.5335 47.3948 50.0264 47.3959 49.4974V44.9862Z" fill="#1FA8AD"/>
<path d="M45.3957 50.0392C45.7407 50.0392 46.0204 49.7595 46.0204 49.4145C46.0204 49.0695 45.7407 48.7898 45.3957 48.7898C45.0507 48.7898 44.771 49.0695 44.771 49.4145C44.771 49.7595 45.0507 50.0392 45.3957 50.0392Z" fill="#1FA8AD"/>
</g>
<defs>
<clipPath id="clip0_1_177">
<rect width="40" height="40" fill="white" transform="translate(21 20)"/>
</clipPath>
</defs>
</svg>
