<svg width="201" height="48" viewBox="0 0 201 48" fill="none" xmlns="http://www.w3.org/2000/svg">
<g clip-path="url(#clip0_1_538)">
<path d="M159.506 8.16634C161.32 5.7474 165.314 5.52003 167.307 7.7874C167.792 9.11371 167.22 10.5095 166.848 11.7853C165.444 11.8548 164.04 11.8863 162.637 11.8548C162.587 10.2063 163.929 9.32845 165.456 9.5495L165.419 7.83792C161.823 7.68003 158.947 11.3937 159.674 14.9179C162.034 15.2969 164.543 15.7895 166.835 14.8042C166.475 16.1116 166.133 17.4316 165.835 18.7579C163.86 18.7579 161.854 18.6758 159.922 19.1874C158.73 23.52 158.68 28.099 157.388 32.4063C156.059 32.3432 154.736 32.3053 153.407 32.2737C153.904 26.899 155.755 21.5369 154.711 16.1116C153.432 16.4085 152.432 15.4358 151.32 15.0253C153.593 15.4232 156.047 16.0927 158.189 14.8169C156.401 12.6821 158.015 9.92213 159.506 8.16634Z" fill="white"/>
<path d="M15.6989 12.1959C16.8231 8.8801 20.1833 6.878 23.525 6.72011C26.8666 6.56221 30.5684 6.76432 33.1336 9.09484C33.6678 10.9896 33.084 13.0233 32.91 14.9622H30.7982C30.1026 13.7875 29.556 12.3033 28.1895 11.7538C25.8293 11.0527 22.997 11.2169 21.2641 13.1938C21.5398 14.2253 22.0729 15.1668 22.8119 15.927C23.5508 16.6872 24.4704 17.2403 25.4815 17.5327C28.1461 18.6001 31.0715 19.9517 32.3138 22.7938C33.084 26.5833 30.9038 31.0043 27.0777 32.0401C22.1179 33.397 16.8379 32.811 12.2827 30.398C12.7672 27.998 13.3635 25.6233 13.879 23.2296C16.8293 25.6043 20.1212 28.3896 24.1895 27.6885C26.1958 27.8275 27.1833 24.998 25.7299 23.7222C23.7858 22.1054 21.2703 21.4738 19.084 20.2738C16.2268 18.9475 14.438 15.2338 15.6989 12.1959Z" fill="white"/>
<path d="M38.0962 7.07995C40.0092 7.04837 41.9161 7.07995 43.8291 7.07995C42.2142 15.4357 41.4937 23.9431 39.7484 32.2736C38.092 32.2736 36.4523 32.2947 34.8291 32.3368C36.2018 23.9557 36.9595 15.4863 38.0962 7.07995Z" fill="white"/>
<path d="M48.177 7.21895C49.736 7.14948 51.3509 6.82106 52.8788 7.21895C53.2515 7.93264 53.5497 8.6779 53.8726 9.41685C57.2205 10.5474 57.6677 14.6147 59.0093 17.4379C59.5434 13.9832 59.854 10.4905 60.5062 7.04843C61.914 7.04843 63.324 7.06737 64.736 7.10527C63.618 12.8905 62.6987 18.7074 61.9099 24.5432C61.6428 27.0695 61.3757 29.7284 62.3695 32.1221L58.9347 31.9768C58.0422 30.5761 57.35 29.0535 56.8788 27.4547C55.6366 22.8695 53.3882 18.5432 53.1521 13.7242C52.017 19.7718 51.2906 25.8914 50.9782 32.04C49.3325 32.2854 47.6725 32.4183 46.0093 32.4379C46.4627 24 47.9844 15.6632 48.177 7.21895Z" fill="white"/>
<path d="M67.3074 7.13677C71.3322 7.13677 75.3819 6.85888 79.3757 7.18098C81.6801 7.35783 84.2639 8.80414 84.5372 11.362C85.1583 15.7831 84.1894 20.2736 83.059 24.5431C82.1335 27.701 80.3322 31.3136 76.8478 31.9831C72.5745 32.7347 68.2142 32.2673 63.8975 32.3557C65.7173 24.0505 66.0341 15.5241 67.3074 7.13677ZM71.7049 11.6273C71.618 17.4505 70.7422 23.2168 70.1583 28.9957C72.4068 28.9326 75.2639 28.9389 76.3695 26.5136C78.0361 22.7193 78.6916 18.5459 78.2701 14.4126C77.7546 11.4568 74.1211 10.6547 71.7049 11.6273Z" fill="white"/>
<path d="M101.388 7.04199C103.127 7.09883 104.86 7.15568 106.593 7.23147C105.575 15.5115 104.395 23.7725 103.227 32.0273C101.455 32.3081 99.6533 32.34 97.8728 32.122C95.91 27.183 93.6243 22.2694 92.9846 16.9262C91.3138 21.9788 91.6057 27.4294 90.1088 32.5073C88.746 32.6399 87.3728 32.6145 86.0156 32.4315C86.6367 23.9999 87.879 15.6251 88.9225 7.23778C90.7051 7.27568 92.4877 7.28831 94.2703 7.35778C95.792 12.8651 97.6554 18.2841 98.7361 23.9115C100.171 18.3915 100.587 12.682 101.388 7.04199Z" fill="white"/>
<path d="M111.27 7.2063C115.457 7.2884 119.637 7.13682 123.823 7.25051C123.823 8.56419 123.767 9.88419 123.748 11.1979C121.146 11.6842 118.494 11.4695 115.873 11.7158C115.668 13.8 115.376 15.8716 115.121 17.9495C117.848 18.0695 120.575 18.1326 123.301 18.1958C123.177 19.581 123.047 20.96 122.91 22.3326C120.258 22.5284 117.612 22.2316 114.966 22.3326C114.059 25.6421 114.239 29.2295 113.171 32.5452C111.37 32.4905 109.568 32.4231 107.767 32.3431C109.289 24.0316 110.438 15.6252 111.27 7.2063Z" fill="white"/>
<path d="M127.724 7.26318C129.417 7.22529 131.113 7.20634 132.811 7.20634C132.003 14.6463 130.326 22.0169 130.363 29.539C134.534 29.7694 138.708 29.1554 142.643 27.7327C144.028 27.3411 144.22 25.5221 143.606 24.4169C141.494 22.6737 138.488 22.2316 136.773 19.939C135.388 18.2779 135.618 15.9284 136.152 13.9706C136.922 10.3263 140.152 7.11792 143.941 7.13055C146.245 7.04845 148.692 7.0674 150.773 8.2674C152.438 9.14529 154.655 10.3579 154.177 12.6884C152.705 13.0674 151.276 13.9516 149.736 13.8063C148.668 13.1748 147.779 12.1642 146.512 11.9558C144.45 11.7663 142.531 12.8779 141.121 14.3179C141.307 15.4737 141.171 16.8442 142.109 17.7348C144.382 19.7874 148.32 19.699 149.649 22.8253C150.661 25.9832 149.842 30.619 146.413 31.8884C139.14 32.9053 131.773 32.0716 124.475 31.9453C125.481 23.6906 126.115 15.3979 127.724 7.26318Z" fill="white"/>
<path d="M170.221 12.12C171.152 11.0905 172.786 11.6084 174.022 11.5642C174.643 15.7705 174.829 20.0905 176.109 24.1579C177.45 20.6526 179.326 17.1347 178.879 13.2379C178.37 12.7453 177.873 12.2589 177.382 11.76C178.339 11.5389 179.301 11.3305 180.27 11.1284C180.533 13.32 180.591 15.532 180.444 17.7347C181.14 15.4105 181.631 11.4189 184.749 11.6274C182.048 17.1809 179.726 22.9165 177.798 28.7937C177.103 30.9916 176.32 33.3284 174.488 34.8379C172.339 36.7326 169.301 36.9221 166.637 36.3347C166.842 35.4379 167.065 34.541 167.295 33.6505C168.537 33.9663 169.972 34.8821 171.202 34.061C172.854 33.0568 173.152 30.8147 172.742 29.0526C171.624 23.4632 170.065 17.88 170.221 12.12Z" fill="white"/>
<path d="M49.4441 35.6716C51.4503 36.4927 53.6366 36.3032 55.7546 36.3537C63.8292 36.3032 71.941 36.1895 80.0342 36.2527C80.9991 36.1855 81.9566 36.4649 82.7398 37.0419C83.523 37.619 84.0821 38.4573 84.3199 39.4106C74.1832 39.2148 64.0404 39.5495 53.8851 39.3348C52.0963 39.5306 50.9472 38.0716 49.7919 36.9474C49.7174 36.6316 49.5683 36.0001 49.4441 35.6716Z" fill="white"/>
<path d="M92.5 36.9033C100.102 36.1264 107.767 36.7896 115.394 36.4106C114.301 37.7938 113.047 39.5685 111.115 39.6254C107.388 39.7391 103.606 39.6254 99.854 39.5685C97.1522 39.6254 94.8106 38.1159 92.5 36.9033Z" fill="white"/>
</g>
<defs>
<clipPath id="clip0_1_538">
<rect width="200" height="48" fill="white" transform="translate(0.5)"/>
</clipPath>
</defs>
</svg>
