<svg width="49" height="48" viewBox="0 0 49 48" fill="none" xmlns="http://www.w3.org/2000/svg">
<rect x="0.5" width="48" height="48" rx="24" fill="white" fill-opacity="0.3"/>
<path d="M18.5 16C17.7044 16 16.9413 16.3161 16.3787 16.8787C15.8161 17.4413 15.5 18.2044 15.5 19V19.3015L24.5 24.148L33.5 19.303V19C33.5 18.2044 33.1839 17.4413 32.6213 16.8787C32.0587 16.3161 31.2956 16 30.5 16H18.5ZM33.5 21.0055L24.8555 25.66C24.7462 25.7188 24.6241 25.7496 24.5 25.7496C24.3759 25.7496 24.2538 25.7188 24.1445 25.66L15.5 21.0055V28C15.5 28.7956 15.8161 29.5587 16.3787 30.1213C16.9413 30.6839 17.7044 31 18.5 31H30.5C31.2956 31 32.0587 30.6839 32.6213 30.1213C33.1839 29.5587 33.5 28.7956 33.5 28V21.0055Z" fill="white"/>
</svg>
